# xmcd
#
# Track frame offsets:
#	150
#	14171
#	35952
#	49054
#	77398
#	94344
#	116138
#	128000
#	144220
#	163507
#	182224
#	196288
#	219801
#	233186
#	250269
#
# Disc length: 3568 seconds
# Revision: 0
# Processed by: cddbd v1.5.2PL0 Copyright (c) Steve Scherf et al.
# Submitted via: dBpowerAMP V12.0
#
DISCID=ce0dee0f
DTITLE=Rob Breese and Doug Rowe - Anytime Now
DYEAR=2003
DGENRE=Country
TTITLE0=A Little Bluer Than That
TTITLE1=Pick Me Up On Your Way Down
TTITLE2=She's a Friend of a Friend
TTITLE3=Anytime Now
TTITLE4=Choices
TTITLE5=Send Him Home Early
TTITLE6=The Fighting Side of Me
TTITLE7=Out of Sight Out of Mind
TTITLE8=ISA Bound
TTITLE9=Footsteps of an Angel
TTITLE10=A Little Bit of Whiskey
TTITLE11=The Heartache Just Started Up Again
TTITLE12=Ruby (Don't Take Your Love to Town
TTITLE13=Brown Bottles
TTITLE14=The Next Time I'm in Town
EXTD=
EXTT0=
EXTT1=
EXTT2=
EXTT3=
EXTT4=
EXTT5=
EXTT6=
EXTT7=
EXTT8=
EXTT9=
EXTT10=
EXTT11=
EXTT12=
EXTT13=
EXTT14=
PLAYORDER=
